<svg width="143" height="43" viewBox="0 0 143 43" fill="none" xmlns="http://www.w3.org/2000/svg">
<path d="M42.7326 27.451C41.4348 25.365 39.9369 23.4262 38.3174 21.5808C38.06 21.2899 38.0635 21.2899 37.7918 21.5664C36.8015 22.5717 35.8112 23.577 34.8209 24.5823C34.4885 24.9198 34.492 24.9449 34.7923 25.3183C35.3894 26.058 36.0007 26.7904 36.5763 27.5516C37.6631 28.9841 38.7071 30.4454 39.4435 32.1006C39.7224 32.7217 39.9512 33.368 40.155 34.0178C40.3266 34.5671 40.1049 34.8472 39.5365 34.8077C39.0181 34.7718 38.4925 34.7072 37.9885 34.5815C36.5727 34.2225 35.2178 33.6839 33.895 33.0628C30.563 31.501 27.467 29.5406 24.4961 27.3792C22.9982 26.2913 21.5539 25.1281 20.1131 23.9648C19.1014 23.1462 18.1397 22.2701 17.1529 21.4228C16.8884 21.1966 16.8491 21.1858 16.6095 21.43C15.6049 22.4425 14.6075 23.4585 13.6172 24.4818C13.3383 24.769 13.3562 24.848 13.6458 25.1281C13.6708 25.1532 13.6994 25.1783 13.7244 25.2035C15.705 26.9915 17.7464 28.7077 19.87 30.3233C22.7479 32.5099 25.7331 34.5312 28.9114 36.2582C31.0707 37.4323 33.2729 38.495 35.6289 39.2203C37.2198 39.7086 38.8358 40.0353 40.5125 39.8881C41.8531 39.7732 43.0365 39.31 43.9839 38.3227C44.9527 37.3102 45.3603 36.0859 45.3174 34.6354C45.3567 33.8814 45.203 33.0879 44.9813 32.3088C44.4879 30.5711 43.6728 28.9805 42.7254 27.4582L42.7326 27.451Z" fill="url(#paint0_linear_1446_7346)" style=""/>
<path d="M0.234348 7.15507C0.606155 8.69534 1.27469 10.1135 2.04691 11.4887C3.06223 13.2946 4.26703 14.9713 5.55763 16.587C6.05099 17.2045 6.57295 17.8041 7.08776 18.4073C7.27009 18.6191 7.30942 18.612 7.4989 18.4181C8.53209 17.3733 9.56171 16.3285 10.5913 15.2801C10.8487 15.018 10.8487 14.9857 10.6164 14.6985C10.0479 13.9911 9.45804 13.2946 8.90748 12.5729C7.70983 11.004 6.5515 9.40624 5.78286 7.57156C5.52903 6.96478 5.3324 6.32929 5.1465 5.69738C5.04997 5.37066 5.25018 5.14805 5.59338 5.12292C5.75069 5.11215 5.91871 5.0942 6.06887 5.12292C6.77673 5.26654 7.49532 5.38861 8.18889 5.59326C10.291 6.21799 12.2502 7.18739 14.1593 8.25014C17.788 10.2751 21.1986 12.6304 24.4054 15.2801C25.6495 16.3069 26.8615 17.3769 28.0877 18.4253C28.4417 18.7269 28.4917 18.734 28.8206 18.4001C29.7394 17.4702 30.6582 16.5367 31.5627 15.5925C32.0024 15.1329 31.9881 15.0898 31.5234 14.6554C29.7037 12.9571 27.7839 11.3774 25.814 9.86222C22.3462 7.19816 18.7211 4.77466 14.8063 2.81072C12.529 1.66898 10.1981 0.674448 7.68122 0.207699C6.5658 0.00304772 5.4468 -0.0867116 4.32066 0.0999878C2.94068 0.326181 1.77878 0.936545 0.942212 2.08906C0.266523 3.01896 -0.0516581 4.05658 0.0341437 5.21627C-0.0194824 5.86972 0.0806196 6.51599 0.234348 7.15507Z" fill="url(#paint1_linear_1446_7346)" style=""/>
<path d="M25.4169 7.38757C26.3894 8.12718 27.3618 8.86321 28.327 9.61001C28.5129 9.75362 28.656 9.74644 28.8526 9.62437C30.4614 8.6047 32.1273 7.69275 33.8505 6.88492C35.2913 6.20993 36.7642 5.61033 38.3265 5.2872C38.8056 5.18667 39.2989 5.15076 39.7887 5.13281C40.0712 5.12204 40.2285 5.34465 40.2106 5.63188C40.2034 5.73959 40.182 5.8473 40.157 5.95501C39.8424 7.17214 39.2632 8.2708 38.634 9.34791C37.5543 11.1934 36.2566 12.8844 34.8802 14.5109C32.1988 17.674 29.2566 20.5786 26.0855 23.2498C25.5421 23.7094 24.9915 24.1618 24.4517 24.625C24.1943 24.8476 24.2014 24.9373 24.4552 25.1635C24.4946 25.1958 24.5303 25.2317 24.5732 25.2604C25.7566 26.0898 26.9399 26.9192 28.1233 27.7486C28.3056 27.8778 28.4951 27.8563 28.6738 27.7342C28.7525 27.684 28.824 27.6193 28.8955 27.5583C30.6008 26.1509 32.2417 24.6716 33.8219 23.1242C36.539 20.4745 39.0809 17.6704 41.301 14.5863C42.5952 12.7875 43.7571 10.9133 44.5722 8.83808C45.1478 7.3768 45.4874 5.87243 45.28 4.29626C45.0941 2.86729 44.372 1.7435 43.1922 0.935666C41.923 0.0596148 40.4751 -0.0696385 38.9951 0.030892C37.6187 0.124242 36.2923 0.465327 34.991 0.906943C33.1677 1.52808 31.4266 2.33232 29.7249 3.2371C27.9946 4.15982 26.2893 5.12563 24.659 6.21711C24.5446 6.2925 24.4409 6.38226 24.3337 6.46484C24.3158 6.49715 24.2979 6.53306 24.2836 6.56537C24.373 6.62641 24.4695 6.68385 24.5553 6.74848C24.8413 6.96031 25.1309 7.16855 25.4134 7.38398L25.4169 7.38757Z" fill="url(#paint2_linear_1446_7346)" style=""/>
<path d="M17.0905 30.3523C16.8689 30.1799 16.6973 30.1763 16.4542 30.3163C15.1528 31.0631 13.8515 31.8207 12.5252 32.5172C10.8198 33.4148 9.0466 34.158 7.16969 34.6033C6.68705 34.7181 6.18297 34.7756 5.68603 34.7971C5.23915 34.8187 5.06755 34.5781 5.15692 34.1365C5.2177 33.8385 5.3035 33.5441 5.4036 33.2569C6.05069 31.4186 7.11249 29.8101 8.23506 28.2411C9.34691 26.6901 10.5803 25.2396 11.8459 23.8142C13.6549 21.7784 15.6033 19.8827 17.6375 18.0768C18.6993 17.1361 19.7933 16.2349 20.8694 15.3158C21.1339 15.0896 21.1339 14.9747 20.8658 14.7449C20.8157 14.7018 20.7657 14.6587 20.7156 14.6192C19.661 13.8724 18.6207 13.1041 17.5481 12.3824C16.8438 11.9085 17.0047 11.869 16.304 12.4578C13.8837 14.4972 11.5885 16.6693 9.40411 18.96C7.33414 21.1322 5.375 23.3941 3.65539 25.8571C2.45774 27.5733 1.4031 29.3649 0.655906 31.3324C0.151821 32.668 -0.11631 34.0467 0.0409936 35.4614C0.259073 37.3894 1.31014 38.7465 3.10126 39.479C4.36683 39.996 5.69318 39.9852 7.02669 39.8057C8.76417 39.5723 10.4159 39.0338 12.0282 38.366C15.0921 37.1022 17.9557 35.4649 20.7264 33.659C20.8229 33.5979 20.9123 33.5226 21.066 33.4041C20.8729 33.2461 20.7156 33.1132 20.5548 32.9876C19.4 32.1044 18.2381 31.2319 17.0905 30.3415V30.3523Z" fill="url(#paint3_linear_1446_7346)" style=""/>
<path d="M52.8047 31.3908V8.79297H67.4947V12.1177H56.9196V18.3146H66.533V21.5424H56.9196V28.0625H67.4947V31.3872H52.8047V31.3908Z" fill="black" style="fill:black;fill-opacity:1;"/>
<path d="M78.6171 31.7786C77.1156 31.7786 75.7785 31.4124 74.5988 30.68C73.419 29.9475 72.4895 28.9494 71.8031 27.6784C71.1166 26.4074 70.7734 24.9677 70.7734 23.352C70.7734 21.7364 71.1166 20.3002 71.8031 19.0436C72.4895 17.7834 73.4226 16.796 74.5988 16.0743C75.7785 15.3527 77.1156 14.9936 78.6171 14.9936C79.8184 14.9936 80.8659 15.2198 81.7668 15.6722C82.6677 16.1246 83.397 16.7601 83.9512 17.5751V8.15039H88.0661V31.3945H84.4016L83.9512 29.1038C83.4363 29.8147 82.7571 30.4394 81.9098 30.9744C81.0625 31.513 79.9649 31.7822 78.6136 31.7822L78.6171 31.7786ZM79.4859 28.1631C80.8158 28.1631 81.9026 27.7179 82.7499 26.8239C83.5972 25.9299 84.0191 24.7846 84.0191 23.3843C84.0191 21.9841 83.5972 20.8388 82.7499 19.9448C81.9026 19.0508 80.8158 18.6056 79.4859 18.6056C78.156 18.6056 77.0942 19.0472 76.2397 19.9304C75.3817 20.8136 74.9527 21.9518 74.9527 23.352C74.9527 24.7523 75.3817 25.9012 76.2397 26.806C77.0977 27.7107 78.1774 28.1631 79.4859 28.1631Z" fill="black" style="fill:black;fill-opacity:1;"/>
<path d="M95.365 31.39L90.7031 15.377H94.7859L97.5494 26.9021L100.763 15.377H105.329L108.543 26.9021L111.338 15.377H115.421L110.727 31.39H106.451L103.044 19.4125L99.6372 31.39H95.3614H95.365Z" fill="black" style="fill:black;fill-opacity:1;"/>
<path d="M120.246 12.893C119.495 12.893 118.881 12.6668 118.398 12.2144C117.915 11.762 117.676 11.1911 117.676 10.5018C117.676 9.81242 117.915 9.24873 118.398 8.80711C118.881 8.3655 119.495 8.14648 120.246 8.14648C120.997 8.14648 121.612 8.3655 122.095 8.80711C122.577 9.24873 122.817 9.81242 122.817 10.5018C122.817 11.1911 122.577 11.762 122.095 12.2144C121.612 12.6668 120.997 12.893 120.246 12.893ZM118.191 31.3906V15.3775H122.305V31.3906H118.191Z" fill="black" style="fill:black;fill-opacity:1;"/>
<path d="M125.102 31.39L130.886 23.3835L125.102 15.377H129.506L133.557 21.0605L137.575 15.377H142.012L136.191 23.3835L142.012 31.39H137.575L133.557 25.7065L129.506 31.39H125.102Z" fill="black" style="fill:black;fill-opacity:1;"/>
<path d="M110.774 36.1582V40.1543L108.111 36.1582H107.285V42.0141H108.168V37.9678L110.857 42.0141H111.657V36.1582H110.774Z" fill="black" style="fill:black;fill-opacity:1;"/>
<path d="M113.516 36.1582V42.0141H117.463L117.323 41.1273H114.474V39.4685H117.019V38.5817H114.474V37.045H117.273L117.402 36.1582H113.516Z" fill="black" style="fill:black;fill-opacity:1;"/>
<path d="M122.499 36.1289L121.173 38.3406L119.84 36.1576H118.824L120.54 39.0766L118.824 42.0028H119.857L121.173 39.7947L122.482 41.9776H123.515L121.799 39.0515L123.515 36.1289H122.499Z" fill="black" style="fill:black;fill-opacity:1;"/>
<path d="M135.618 36.1582V40.1543L132.955 36.1582H132.129V42.0141H133.012V37.9678L135.704 42.0141H136.501V36.1582H135.618Z" fill="black" style="fill:black;fill-opacity:1;"/>
<path d="M138.105 36.1582V42.0141H142.049L141.909 41.1273H139.064V39.4685H141.605V38.5817H139.064V37.045H141.863L141.992 36.1582H138.105Z" fill="black" style="fill:black;fill-opacity:1;"/>
<path d="M125.053 39.0524L126.244 37.0274H128.657L129.847 39.0524L128.657 41.0774H126.244L125.053 39.0524ZM125.736 36.1406L124.023 39.0524L125.736 41.9678H129.161L130.873 39.0524L129.161 36.1406H125.736Z" fill="#EE7F23" style="fill:#EE7F23;fill:color(display-p3 0.9333 0.4980 0.1373);fill-opacity:1;"/>
<path d="M70.7734 41.3325V37.541H72.1713C72.4752 37.541 72.7218 37.5913 72.9221 37.6918C73.1187 37.7923 73.2688 37.9324 73.3654 38.1083C73.4619 38.2842 73.5119 38.4853 73.5119 38.7043C73.5119 38.9233 73.4655 39.1064 73.3725 39.2823C73.2796 39.4583 73.133 39.5983 72.9364 39.706C72.7397 39.8137 72.4859 39.864 72.1749 39.864H71.467V41.3325H70.777H70.7734ZM71.4634 39.3003H72.1284C72.3679 39.3003 72.5431 39.2464 72.6503 39.1387C72.7576 39.031 72.8112 38.8874 72.8112 38.7007C72.8112 38.514 72.7576 38.3668 72.6503 38.2591C72.5431 38.1514 72.3715 38.0975 72.1284 38.0975H71.4634V39.2967V39.3003Z" fill="black" style="fill:black;fill-opacity:1;"/>
<path d="M75.8206 41.3959C75.4416 41.3959 75.1127 41.3134 74.8303 41.1482C74.5478 40.983 74.3262 40.7533 74.1653 40.4588C74.0044 40.1644 73.9258 39.8233 73.9258 39.4392C73.9258 39.055 74.0044 38.7103 74.1653 38.4195C74.3262 38.1251 74.5478 37.8953 74.8303 37.7302C75.1127 37.565 75.4416 37.4824 75.8206 37.4824C76.1995 37.4824 76.5249 37.565 76.8073 37.7302C77.0897 37.8953 77.3114 38.1251 77.4723 38.4195C77.6296 38.7139 77.7082 39.055 77.7082 39.4392C77.7082 39.8233 77.6296 40.168 77.4723 40.4588C77.315 40.7533 77.0933 40.983 76.8073 41.1482C76.5213 41.3134 76.1924 41.3959 75.8206 41.3959ZM75.8206 40.7712C76.1817 40.7712 76.4677 40.6527 76.6822 40.4122C76.8967 40.1752 77.0039 39.8485 77.0039 39.432C77.0039 39.0155 76.8967 38.6888 76.6822 38.4518C76.4677 38.2149 76.1817 38.0928 75.8206 38.0928C75.4595 38.0928 75.1735 38.2113 74.9554 38.4518C74.7409 38.6888 74.6301 39.0155 74.6301 39.432C74.6301 39.8485 74.7373 40.1752 74.9554 40.4122C75.1735 40.6491 75.4595 40.7712 75.8206 40.7712Z" fill="black" style="fill:black;fill-opacity:1;"/>
<path d="M78.9232 41.3325L77.9258 37.541H78.6658L79.3451 40.5605L80.1423 37.541H80.9038L81.6796 40.5605L82.3589 37.541H83.1025L82.0764 41.3325H81.2577L80.507 38.5212L79.7348 41.3325H78.9197H78.9232Z" fill="black" style="fill:black;fill-opacity:1;"/>
<path d="M83.6055 41.3325V37.541H86.0723V38.0975H84.2955V39.1387H85.9078V39.6809H84.2955V40.7759H86.0723V41.3325H83.6055Z" fill="black" style="fill:black;fill-opacity:1;"/>
<path d="M86.7266 41.3325V37.541H88.1137C88.4176 37.541 88.6642 37.5913 88.8609 37.6954C89.0575 37.7995 89.2041 37.936 89.3006 38.1119C89.3971 38.2878 89.4472 38.4817 89.4472 38.6935C89.4472 38.9233 89.3864 39.1351 89.2649 39.329C89.1433 39.5229 88.9574 39.6593 88.7 39.7455L89.4829 41.3325H88.6893L87.9886 39.8353H87.4166V41.3325H86.7266ZM87.4166 39.329H88.0708C88.2996 39.329 88.4712 39.2716 88.5785 39.1603C88.6857 39.049 88.7393 38.9018 88.7393 38.7151C88.7393 38.5284 88.6857 38.3883 88.5785 38.2806C88.4712 38.1729 88.2996 38.1191 88.0636 38.1191H87.4166V39.329Z" fill="black" style="fill:black;fill-opacity:1;"/>
<path d="M90.0859 41.3325V37.541H92.5527V38.0975H90.7759V39.1387H92.3883V39.6809H90.7759V40.7759H92.5527V41.3325H90.0859Z" fill="black" style="fill:black;fill-opacity:1;"/>
<path d="M93.2031 41.3325V37.541H94.4937C94.937 37.541 95.3017 37.62 95.5877 37.778C95.8737 37.936 96.0846 38.155 96.2241 38.4386C96.3635 38.7222 96.4314 39.0562 96.4314 39.4367C96.4314 39.8173 96.3635 40.1512 96.2241 40.4349C96.0846 40.7185 95.8737 40.9375 95.5877 41.0955C95.3017 41.2535 94.937 41.3325 94.4937 41.3325H93.2031ZM93.8931 40.7364H94.458C94.7762 40.7364 95.0228 40.6862 95.2087 40.5821C95.3911 40.4779 95.5234 40.3307 95.602 40.1369C95.6807 39.943 95.72 39.7096 95.72 39.4367C95.72 39.1639 95.6807 38.9341 95.602 38.7366C95.5234 38.5427 95.3911 38.3919 95.2087 38.2878C95.0264 38.1837 94.7762 38.1298 94.458 38.1298H93.8931V40.7364Z" fill="black" style="fill:black;fill-opacity:1;"/>
<path d="M98.5505 41.3325V37.541H100.066C100.46 37.541 100.756 37.6308 100.964 37.8139C101.171 37.997 101.275 38.2304 101.275 38.514C101.275 38.751 101.21 38.9413 101.082 39.0849C100.953 39.2285 100.799 39.3254 100.613 39.3757C100.828 39.4188 101.007 39.5265 101.146 39.6988C101.285 39.8712 101.357 40.0686 101.357 40.2984C101.357 40.6 101.25 40.8477 101.035 41.0416C100.821 41.2355 100.513 41.3325 100.116 41.3325H98.5469H98.5505ZM99.2404 39.1316H99.9626C100.156 39.1316 100.306 39.0849 100.409 38.9951C100.513 38.9054 100.567 38.7761 100.567 38.6109C100.567 38.4458 100.517 38.3273 100.413 38.234C100.309 38.1406 100.156 38.0975 99.9519 38.0975H99.2404V39.1316ZM99.2404 40.7688H100.013C100.216 40.7688 100.377 40.7221 100.492 40.6251C100.606 40.5282 100.663 40.3954 100.663 40.223C100.663 40.0507 100.603 39.9071 100.485 39.8065C100.367 39.706 100.206 39.6557 100.006 39.6557H99.244V40.7724L99.2404 40.7688Z" fill="black" style="fill:black;fill-opacity:1;"/>
<path d="M102.765 41.3321V39.9822L101.496 37.5371H102.279L103.116 39.2892L103.945 37.5371H104.717L103.455 39.9822V41.3321H102.765Z" fill="black" style="fill:black;fill-opacity:1;"/>
<defs>
<linearGradient id="paint0_linear_1446_7346" x1="-16.4885" y1="50.4617" x2="107.946" y2="-3.38594" gradientUnits="userSpaceOnUse">
<stop stop-color="#40BCD2" style="stop-color:#40BCD2;stop-color:color(display-p3 0.2510 0.7373 0.8235);stop-opacity:1;"/>
<stop offset="0.52" stop-color="#1A80C3" style="stop-color:#1A80C3;stop-color:color(display-p3 0.1020 0.5020 0.7647);stop-opacity:1;"/>
<stop offset="1" stop-color="#32B4D1" style="stop-color:#32B4D1;stop-color:color(display-p3 0.1961 0.7059 0.8196);stop-opacity:1;"/>
</linearGradient>
<linearGradient id="paint1_linear_1446_7346" x1="-26.2569" y1="27.8931" x2="98.1807" y2="-25.9546" gradientUnits="userSpaceOnUse">
<stop stop-color="#40BCD2" style="stop-color:#40BCD2;stop-color:color(display-p3 0.2510 0.7373 0.8235);stop-opacity:1;"/>
<stop offset="0.52" stop-color="#1A80C3" style="stop-color:#1A80C3;stop-color:color(display-p3 0.1020 0.5020 0.7647);stop-opacity:1;"/>
<stop offset="1" stop-color="#32B4D1" style="stop-color:#32B4D1;stop-color:color(display-p3 0.1961 0.7059 0.8196);stop-opacity:1;"/>
</linearGradient>
<linearGradient id="paint2_linear_1446_7346" x1="-21.9885" y1="37.7585" x2="102.449" y2="-16.0927" gradientUnits="userSpaceOnUse">
<stop offset="0.52" stop-color="#1A80C3" style="stop-color:#1A80C3;stop-color:color(display-p3 0.1020 0.5020 0.7647);stop-opacity:1;"/>
<stop offset="1" stop-color="#32B4D1" style="stop-color:#32B4D1;stop-color:color(display-p3 0.1961 0.7059 0.8196);stop-opacity:1;"/>
</linearGradient>
<linearGradient id="paint3_linear_1446_7346" x1="-20.7659" y1="40.5812" x2="103.668" y2="-13.27" gradientUnits="userSpaceOnUse">
<stop stop-color="#40BCD2" style="stop-color:#40BCD2;stop-color:color(display-p3 0.2510 0.7373 0.8235);stop-opacity:1;"/>
<stop offset="0.52" stop-color="#1A80C3" style="stop-color:#1A80C3;stop-color:color(display-p3 0.1020 0.5020 0.7647);stop-opacity:1;"/>
<stop offset="1" stop-color="#32B4D1" style="stop-color:#32B4D1;stop-color:color(display-p3 0.1961 0.7059 0.8196);stop-opacity:1;"/>
</linearGradient>
</defs>
</svg>
